PathFileType	4	(X/Y/Z)	OpenSim_Sub09_EMGBaseline_Gyro.trc
DataRate	CameraRate	NumFrames	NumMarkers	Units	OrigDataRate	OrigDataStartFrame	OrigNumFrames
100	100	17	8	m	100	3651	7301
Frame#	Time	torso_imu_offset_imu	pelvis_imu_offset_imu	tibia_r_imu_offset_imu	femur_r_imu_offset_imu	tibia_l_imu_offset_imu	femur_l_imu_offset_imu	toes_r_imu_offset_imu	toes_l_imu_offset_imu
				X1	Y1	Z1	X2	Y2	Z2	X3	Y3	Z3	X4	Y4	Z4	X5	Y5	Z5	X6	Y6	Z6	X7	Y7	Z7	X8		Y8	Z8	

3651	36.50000000	-0.40443400	-0.00194600	-0.06752800	-0.58650700	0.13485300	-0.07032400	1.86366000	-0.43057600	-1.66546700	-1.00341500	0.82140000	1.82147100	1.22542800	-0.66041500	0.36599600	0.16068300	-0.36525700	1.20661000	-0.48531700	-4.34396600	-2.47032100	-0.55605200	0.04556500	0.22028500
3652	36.51000000	-0.41596800	-0.01801600	-0.08752600	-0.55538100	0.12377100	-0.04950200	2.01627000	-0.44870300	-1.39454200	-1.14201800	0.70657400	1.80408900	1.39712700	-0.53868600	0.42047000	0.14805400	-0.30174600	1.17658600	-0.68884200	-3.30652300	-2.23473100	-0.46884200	0.05463900	0.17233700
3653	36.52000000	-0.41268500	-0.03162300	-0.10523800	-0.52459400	0.09861600	-0.00316100	1.70922100	-0.45654000	-1.15320600	-1.13170400	0.62844700	1.77320000	1.40829900	-0.42758900	0.56225800	0.07879100	-0.27389000	1.07422100	-0.47004200	-2.38508400	-1.78952100	-0.37177100	0.04714300	0.12132700
3654	36.53000000	-0.41051500	-0.04062700	-0.11438300	-0.46492600	0.07194900	0.05322500	0.91832100	-0.31873700	-0.97468800	-1.00344300	0.58479300	1.74178400	1.28598100	-0.32712300	0.73682900	-0.03653800	-0.24073200	0.95888200	-1.00632200	-0.53188300	-1.15590200	-0.28354100	0.03901600	0.08364900
3655	36.54000000	-0.40134500	-0.06644100	-0.12302900	-0.39083400	0.05699300	0.14588600	0.52709900	-0.15001800	-0.86373300	-0.79837200	0.49349200	1.63755900	0.95832500	-0.19659700	0.80071400	-0.17446300	-0.20079600	0.81642000	-1.05013200	1.34655100	-0.88455200	-0.23463400	0.03806800	0.06285100
3656	36.55000000	-0.38626700	-0.09781200	-0.12236000	-0.31989800	0.04027400	0.26406600	-0.25768300	-0.33655300	-0.71079800	-0.61984900	0.38254400	1.51923400	0.29270600	-0.09300200	0.76158900	-0.30358000	-0.17979100	0.71277000	-0.89089600	2.10721300	-0.67708100	-0.19233900	0.03367800	0.05728600
3657	36.56000000	-0.37580400	-0.13332900	-0.12356100	-0.26578100	0.04108800	0.37751000	-1.17816500	-0.81197000	-0.40216200	-0.45961000	0.31575600	1.44541100	-0.35468600	-0.11544300	0.66087700	-0.34765400	-0.17311200	0.66571600	-0.28139700	2.10771300	-0.54931400	-0.16410100	0.01795100	0.05878700
3658	36.57000000	-0.36820600	-0.15626400	-0.12244300	-0.22992600	0.04773000	0.47018200	-1.53993600	-1.06244800	0.09302900	-0.30259300	0.28057900	1.45406400	-0.95011800	-0.13155300	0.57107600	-0.31699000	-0.16894200	0.65610200	0.29577200	1.88852400	-0.48097200	-0.12308100	0.03889700	0.04278800
3659	36.58000000	-0.36979600	-0.16844900	-0.12578000	-0.19230700	0.04988700	0.53490900	-1.62381800	-0.88867900	0.72990700	-0.12743500	0.22284100	1.51729200	-1.37756800	-0.11269800	0.55131000	-0.25502200	-0.16618500	0.65336700	0.28011200	1.82965700	-0.30824900	-0.08619300	0.00430400	0.04310200
3660	36.59000000	-0.36327400	-0.15854000	-0.12669300	-0.17919500	0.04606300	0.57872600	-1.68016100	-0.52215900	1.38460100	0.07704500	0.19654300	1.51903800	-1.31436100	-0.12026000	0.49742800	-0.18080300	-0.14744100	0.65768600	-0.01455500	1.96306400	0.04827400	-0.06202000	-0.01417400	0.04440500
3661	36.60000000	-0.35995700	-0.14822600	-0.11979900	-0.17854900	0.04972400	0.60210500	-1.58074100	-0.21682600	1.95513500	0.26046400	0.22477000	1.46415000	-0.79662700	-0.10467900	0.39851000	-0.05139600	-0.12783100	0.67140000	-0.40628100	2.24015200	0.50970500	-0.03814700	-0.02750600	0.04685200
3662	36.61000000	-0.36250900	-0.13288700	-0.10881400	-0.16473300	0.04301800	0.60465000	-1.20317200	-0.00388600	2.35320300	0.39508700	0.28297900	1.41038200	-0.04367000	-0.15681800	0.38018700	0.12342900	-0.09332200	0.68912000	-0.73520800	2.56675600	0.94275000	-0.01438800	-0.05141200	0.04907400
3663	36.62000000	-0.36361400	-0.12383400	-0.09905000	-0.15523600	0.03455000	0.60066100	-0.70892200	0.13693200	2.61500400	0.46318400	0.35385700	1.32478400	0.60442400	-0.23159400	0.43287500	0.31597800	-0.04750700	0.69614300	-0.86011100	2.83490900	1.27424600	-0.02826200	-0.03861400	0.05894700
3664	36.63000000	-0.35420500	-0.11101300	-0.09850700	-0.13934900	0.03678300	0.58178700	-0.39819600	0.20549400	2.80263800	0.50355600	0.41912800	1.23698600	1.08395800	-0.19699900	0.46387100	0.49489300	-0.01588300	0.69991100	-0.81193200	3.02709100	1.51607000	-0.06111100	-0.02023200	0.07470100
3665	36.64000000	-0.33588200	-0.11277000	-0.09986600	-0.12927100	0.06018400	0.56144300	-0.35575400	0.16782600	2.97893900	0.51242900	0.46971400	1.13725000	1.22611200	-0.10498900	0.43081000	0.59296500	0.01610600	0.71684000	-0.72667500	3.20059900	1.68918700	-0.07754300	0.00087300	0.08048400
3666	36.65000000	-0.31221900	-0.12117600	-0.10403200	-0.12992300	0.08874900	0.52957300	-0.40400800	0.07780200	3.18152600	0.48096800	0.48841800	1.03282500	1.09403300	-0.12137000	0.40650500	0.62863900	0.04255100	0.75017900	-0.70339300	3.40727100	1.83330100	-0.09159400	0.02319700	0.08702600
3667	36.66000000	-0.28860900	-0.12952300	-0.10816500	-0.13244300	0.12528200	0.48986300	-0.42328400	0.08846300	3.41010000	0.44303300	0.47975200	0.92228300	0.86363600	-0.12748600	0.39500600	0.61612200	0.06422500	0.79706600	-0.78516500	3.61599400	1.95383400	-0.09037900	0.03021200	0.07713000
